# xmcd CD database file
#
# Track frame offsets:
#	150
#	15909
#	29318
#	40796
#	57285
#	70005
#	81515
#	94755
#	108464
#	121771
#	133577
#	148256
#	162383
#	175820
#	195492
#
# Disc length: 2760 seconds
#
# Revision: 0
# Processed by: cddbd v1.5.2PL0 Copyright (c) Steve Scherf et al.
# Submitted via: CDex 1.51
#
DISCID=c50ac60f
DTITLE=Milt Jackson and The MJQ - The Savoy Recordings
DYEAR=1900
DGENRE=Jazz
TTITLE0=Softly, as in a morning sunrise
TTITLE1=Round about midnight
TTITLE2=Heart and soul
TTITLE3=Love me pretty baby
TTITLE4=Bluesology
TTITLE5=Yesterdays
TTITLE6=D and E
TTITLE7=True Blues
TTITLE8=Autumn Breeze
TTITLE9=Between the devil and the deep blue sea
TTITLE10=Moving nicely
TTITLE11=Milt meets Sid
TTITLE12=You go to my head
TTITLE13=Blues mood
TTITLE14=Big junior
EXTD=
EXTT0=
EXTT1=
EXTT2=
EXTT3=
EXTT4=
EXTT5=
EXTT6=
EXTT7=
EXTT8=
EXTT9=
EXTT10=
EXTT11=
EXTT12=
EXTT13=
EXTT14=
PLAYORDER=
